<?xml version="1.0"?>
<svg xmlns="http://www.w3.org/2000/svg" xmlns:xlink="http://www.w3.org/1999/xlink" xmlns:svgjs="http://svgjs.com/svgjs" version="1.1" width="512" height="512" x="0" y="0" viewBox="0 0 512 512" style="enable-background:new 0 0 512 512" xml:space="preserve" class=""><g><g xmlns="http://www.w3.org/2000/svg"><path d="m136.113 306.5c-4.142 0-7.5 3.358-7.5 7.5s3.358 7.5 7.5 7.5 7.5-3.358 7.5-7.5-3.358-7.5-7.5-7.5zm-30 0c-4.142 0-7.5 3.358-7.5 7.5s3.358 7.5 7.5 7.5 7.5-3.358 7.5-7.5-3.358-7.5-7.5-7.5zm-30 0c-4.142 0-7.5 3.358-7.5 7.5s3.358 7.5 7.5 7.5 7.5-3.358 7.5-7.5-3.358-7.5-7.5-7.5zm337.274 94.5c0-4.142-3.358-7.5-7.5-7.5s-7.5 3.358-7.5 7.5 3.358 7.5 7.5 7.5 7.5-3.358 7.5-7.5zm51.357-51h-52.812v-312.5c0-20.678-16.822-37.5-37.5-37.5h-238.32c-20.678 0-37.5 16.822-37.5 37.5v111c0 4.142 3.357 7.5 7.5 7.5s7.5-3.358 7.5-7.5v-111c0-12.407 10.094-22.5 22.5-22.5h43.958v23.011c0 9.649 7.851 17.5 17.5 17.5h115.404c9.649 0 17.5-7.851 17.5-17.5v-23.011h43.958c12.406 0 22.5 10.093 22.5 22.5v312.5h-49.901c-12.406 0-22.5 10.093-22.5 22.5v30.865c0 3.326-1.438 6.486-3.945 8.67l-16.678 14.532c-9.954 8.694-3.576 25.439 9.525 25.433h37.68c4.143 0 7.5-3.358 7.5-7.5s-3.357-7.5-7.5-7.5h-36.345l15.671-13.655c5.778-5.034 9.092-12.316 9.092-19.98v-30.865c0-4.136 3.364-7.5 7.5-7.5h117.713c4.136 0 7.5 3.364 7.5 7.5v57c0 4.136-3.364 7.5-7.5 7.5h-78.631c-4.143 0-7.5 3.358-7.5 7.5s3.357 7.5 7.5 7.5h10.819v22.5c0 12.407-10.094 22.5-22.5 22.5h-238.32c-12.406 0-22.5-10.093-22.5-22.5v-109.5h84.955c12.92.134 19.496-16.932 9.525-25.433l-16.678-14.531c-2.508-2.185-3.945-5.345-3.945-8.671v-30.865c0-12.407-10.094-22.5-22.5-22.5h-51.357v-79.5c0-4.142-3.357-7.5-7.5-7.5s-7.5 3.358-7.5 7.5v79.5h-51.356c-12.406 0-22.5 10.093-22.5 22.5v57c0 12.407 10.094 22.5 22.5 22.5h51.355v109.5c0 20.678 16.822 37.5 37.5 37.5h238.32c20.678 0 37.5-16.822 37.5-37.5v-22.5h52.812c12.406 0 22.5-10.093 22.5-22.5v-57c.001-12.407-10.093-22.5-22.499-22.5zm-149.27-311.989c0 1.378-1.121 2.5-2.5 2.5h-115.404c-1.379 0-2.5-1.122-2.5-2.5v-23.011h120.404zm-268.218 311.989c-4.136 0-7.5-3.364-7.5-7.5v-57c0-4.136 3.364-7.5 7.5-7.5h117.713c4.136 0 7.5 3.364 7.5 7.5v30.865c0 7.663 3.313 14.945 9.091 19.98l15.672 13.655zm336.131 51c0-4.142-3.358-7.5-7.5-7.5s-7.5 3.358-7.5 7.5 3.358 7.5 7.5 7.5 7.5-3.358 7.5-7.5zm60 0c0-4.142-3.358-7.5-7.5-7.5s-7.5 3.358-7.5 7.5 3.358 7.5 7.5 7.5 7.5-3.358 7.5-7.5zm-236.943-235.762c0 26.507 21.904 48.073 48.828 48.073s48.828-21.565 48.828-48.073-21.904-48.073-48.828-48.073-48.828 21.565-48.828 48.073zm82.656 0c0 18.236-15.175 33.073-33.828 33.073s-33.828-14.836-33.828-33.073 15.175-33.073 33.828-33.073 33.828 14.836 33.828 33.073zm-14.327-94.221h-39.002c-6.067 0-11.003 4.907-11.003 10.938v8.234c-7.306 2.871-14.119 6.743-20.314 11.546l-7.449-4.222c-5.215-2.956-11.92-1.168-14.947 3.981l-19.503 33.161c-3.081 5.167-1.202 12.08 4.05 15.023l7.314 4.146c-.544 3.773-.818 7.6-.818 11.413 0 3.812.274 7.639.818 11.413l-7.315 4.147c-5.253 2.94-7.122 9.848-4.048 15.024l19.501 33.157c3.029 5.154 9.734 6.938 14.948 3.983l7.449-4.222c6.195 4.804 13.009 8.676 20.314 11.547v8.234c0 6.032 4.936 10.939 11.003 10.939h39.002c6.067 0 11.003-4.907 11.003-10.939v-8.234c7.306-2.87 14.118-6.743 20.314-11.546l7.448 4.221c5.214 2.958 11.92 1.17 14.948-3.98l19.503-33.161c3.074-5.173 1.175-12.094-4.05-15.023l-7.314-4.146c.544-3.774.818-7.601.818-11.413s-.274-7.639-.818-11.413l7.315-4.147c5.231-2.931 7.112-9.867 4.048-15.023l-19.501-33.158c-3.028-5.151-9.731-6.938-14.948-3.983l-7.449 4.223c-6.196-4.804-13.01-8.677-20.314-11.547v-8.234c0-6.033-4.936-10.939-11.003-10.939zm23.914 44.009c3.489 2.896 8.499 3.332 12.468 1.082l6.393-3.624 15.399 26.184-6.176 3.5c-4.047 2.294-6.209 6.881-5.381 11.415.699 3.83 1.054 7.75 1.054 11.655 0 3.904-.354 7.825-1.054 11.654-.828 4.533 1.334 9.12 5.381 11.416l6.176 3.5-15.399 26.184-6.391-3.622c-3.97-2.25-8.982-1.817-12.471 1.082-6.146 5.104-13.087 9.043-20.635 11.708-4.352 1.537-7.275 5.672-7.275 10.29v7.009h-31.008v-7.009c0-4.619-2.925-8.754-7.276-10.29-7.547-2.665-14.488-6.604-20.634-11.709-3.488-2.898-8.5-3.333-12.469-1.083l-6.393 3.623-15.399-26.184 6.176-3.5c4.047-2.294 6.209-6.881 5.381-11.414-.699-3.83-1.054-7.751-1.054-11.655s.354-7.825 1.054-11.654c.828-4.534-1.334-9.122-5.381-11.416l-6.176-3.5 15.399-26.184 6.393 3.624c3.969 2.249 8.979 1.814 12.469-1.083 6.146-5.104 13.087-9.044 20.635-11.709 4.352-1.537 7.275-5.672 7.275-10.29v-7.009h31.008v7.009c0 4.618 2.924 8.753 7.276 10.29 7.547 2.664 14.489 6.604 20.635 11.71z" fill="#fc4c02" data-original="#000000" style="" class=""/></g></g></svg>
